<svg width="60" height="28" viewBox="0 0 60 28" fill="none" xmlns="http://www.w3.org/2000/svg">
<path d="M60 14C60.0002 16.7691 59.1792 19.476 57.6409 21.7785C56.1025 24.081 53.916 25.8756 51.3577 26.9353C48.7994 27.995 45.9843 28.2722 43.2684 27.732C40.5526 27.1917 38.0579 25.8582 36.1 23.9L36.0175 23.8125L21.03 6.88751C19.6268 5.50075 17.8448 4.56 15.9082 4.18365C13.9717 3.80731 11.967 4.01219 10.1466 4.7725C8.3262 5.53281 6.77135 6.81459 5.67773 8.45653C4.58411 10.0985 4.00058 12.0272 4.00058 14C4.00058 15.9728 4.58411 17.9016 5.67773 19.5435C6.77135 21.1854 8.3262 22.4672 10.1466 23.2275C11.967 23.9878 13.9717 24.1927 15.9082 23.8164C17.8448 23.44 19.6268 22.4993 21.03 21.1125L23.16 18.7075C23.3341 18.5105 23.5454 18.3498 23.7817 18.2344C24.018 18.1191 24.2747 18.0514 24.5371 18.0353C24.7996 18.0192 25.0626 18.0549 25.3112 18.1404C25.5599 18.2259 25.7892 18.3596 25.9862 18.5338C26.1832 18.7079 26.344 18.9192 26.4593 19.1555C26.5746 19.3918 26.6423 19.6485 26.6584 19.9109C26.6746 20.1733 26.6388 20.4364 26.5533 20.685C26.4678 20.9337 26.3341 21.163 26.16 21.36L23.9875 23.8125L23.905 23.9C21.947 25.8578 19.4524 27.191 16.7367 27.7311C14.021 28.2712 11.2062 27.9939 8.64808 26.9342C6.09 25.8745 3.90358 24.0801 2.36531 21.7778C0.827031 19.4756 0.00598145 16.7689 0.00598145 14C0.00598145 11.2311 0.827031 8.52443 2.36531 6.22218C3.90358 3.91992 6.09 2.1255 8.64808 1.06583C11.2062 0.006163 14.021 -0.271166 16.7367 0.268911C19.4524 0.808989 21.947 2.14222 23.905 4.10001L23.9875 4.18751L38.975 21.1125C40.3781 22.4993 42.1601 23.44 44.0967 23.8164C46.0333 24.1927 48.0379 23.9878 49.8583 23.2275C51.6787 22.4672 53.2336 21.1854 54.3272 19.5435C55.4208 17.9016 56.0044 15.9728 56.0044 14C56.0044 12.0272 55.4208 10.0985 54.3272 8.45653C53.2336 6.81459 51.6787 5.53281 49.8583 4.7725C48.0379 4.01219 46.0333 3.80731 44.0967 4.18365C42.1601 4.56 40.3781 5.50075 38.975 6.88751L36.845 9.29251C36.4932 9.69034 35.9979 9.93214 35.4678 9.96472C34.9378 9.99731 34.4165 9.818 34.0187 9.46626C33.6209 9.11452 33.3791 8.61914 33.3465 8.08912C33.3139 7.5591 33.4932 7.03783 33.845 6.64001L36.0175 4.18751L36.1 4.10001C38.0579 2.14187 40.5526 0.808337 43.2684 0.26806C45.9843 -0.272216 48.7994 0.00503266 51.3577 1.06474C53.916 2.12445 56.1025 3.91902 57.6409 6.2215C59.1792 8.52397 60.0002 11.2309 60 14Z" fill="#FAFAFA"/>
</svg>
